<mxfile host="app.diagrams.net" agent="Mozilla/5.0 (Windows NT 10.0; Win64; x64) AppleWebKit/537.36 (KHTML, like Gecko) Chrome/126.0.0.0 Whale/3.27.254.15 Safari/537.36" version="24.7.7">
  <diagram id="BdTCAZq-6-u4TpQeAPkp" name="페이지-1">
    <mxGraphModel dx="566" dy="748" grid="1" gridSize="10" guides="1" tooltips="1" connect="1" arrows="1" fold="1" page="1" pageScale="1" pageWidth="827" pageHeight="1169" math="0" shadow="0">
      <root>
        <mxCell id="0" />
        <mxCell id="1" parent="0" />
        <mxCell id="6VlEbWFDwJkO8VRMijG--4" value="CCO 동작 처리 함수 호출&lt;br&gt;(함수 내에서 dpSet 처리)" style="rounded=1;whiteSpace=wrap;html=1;" vertex="1" parent="1">
          <mxGeometry x="1350" y="320" width="230" height="60" as="geometry" />
        </mxCell>
        <mxCell id="6VlEbWFDwJkO8VRMijG--5" value="CCO" style="ellipse;whiteSpace=wrap;html=1;" vertex="1" parent="1">
          <mxGeometry x="1405" y="80" width="120" height="80" as="geometry" />
        </mxCell>
        <mxCell id="6VlEbWFDwJkO8VRMijG--6" style="edgeStyle=orthogonalEdgeStyle;rounded=0;orthogonalLoop=1;jettySize=auto;html=1;exitX=0.5;exitY=1;exitDx=0;exitDy=0;" edge="1" parent="1" source="6VlEbWFDwJkO8VRMijG--7" target="6VlEbWFDwJkO8VRMijG--4">
          <mxGeometry relative="1" as="geometry" />
        </mxCell>
        <mxCell id="6VlEbWFDwJkO8VRMijG--7" value="Active" style="rhombus;whiteSpace=wrap;html=1;" vertex="1" parent="1">
          <mxGeometry x="1340" y="190" width="250" height="80" as="geometry" />
        </mxCell>
        <mxCell id="6VlEbWFDwJkO8VRMijG--8" value="이력 저장&lt;br&gt;(함수 내에서 dpSet 처리)" style="rounded=1;whiteSpace=wrap;html=1;" vertex="1" parent="1">
          <mxGeometry x="1670" y="320" width="230" height="60" as="geometry" />
        </mxCell>
        <mxCell id="6VlEbWFDwJkO8VRMijG--9" value="AlarmAttr" style="ellipse;whiteSpace=wrap;html=1;" vertex="1" parent="1">
          <mxGeometry x="1725" y="80" width="120" height="80" as="geometry" />
        </mxCell>
        <mxCell id="6VlEbWFDwJkO8VRMijG--10" style="edgeStyle=orthogonalEdgeStyle;rounded=0;orthogonalLoop=1;jettySize=auto;html=1;exitX=0.5;exitY=1;exitDx=0;exitDy=0;" edge="1" parent="1" source="6VlEbWFDwJkO8VRMijG--11" target="6VlEbWFDwJkO8VRMijG--8">
          <mxGeometry relative="1" as="geometry" />
        </mxCell>
        <mxCell id="6VlEbWFDwJkO8VRMijG--11" value="Active" style="rhombus;whiteSpace=wrap;html=1;" vertex="1" parent="1">
          <mxGeometry x="1660" y="190" width="250" height="80" as="geometry" />
        </mxCell>
        <mxCell id="6VlEbWFDwJkO8VRMijG--12" value="SmartIO_STS" style="ellipse;whiteSpace=wrap;html=1;" vertex="1" parent="1">
          <mxGeometry x="2025" y="150" width="120" height="80" as="geometry" />
        </mxCell>
        <mxCell id="6VlEbWFDwJkO8VRMijG--13" style="edgeStyle=orthogonalEdgeStyle;rounded=0;orthogonalLoop=1;jettySize=auto;html=1;exitX=0.5;exitY=1;exitDx=0;exitDy=0;entryX=0.5;entryY=0;entryDx=0;entryDy=0;" edge="1" parent="1" source="6VlEbWFDwJkO8VRMijG--14" target="6VlEbWFDwJkO8VRMijG--15">
          <mxGeometry relative="1" as="geometry" />
        </mxCell>
        <mxCell id="6VlEbWFDwJkO8VRMijG--14" value="Active" style="rhombus;whiteSpace=wrap;html=1;" vertex="1" parent="1">
          <mxGeometry x="1960" y="260" width="250" height="80" as="geometry" />
        </mxCell>
        <mxCell id="6VlEbWFDwJkO8VRMijG--15" value="dpSet 처리" style="rounded=1;whiteSpace=wrap;html=1;" vertex="1" parent="1">
          <mxGeometry x="1970" y="390" width="230" height="60" as="geometry" />
        </mxCell>
        <mxCell id="6VlEbWFDwJkO8VRMijG--16" value="AlarmInsert" style="ellipse;whiteSpace=wrap;html=1;" vertex="1" parent="1">
          <mxGeometry x="2380" y="150" width="120" height="80" as="geometry" />
        </mxCell>
        <mxCell id="6VlEbWFDwJkO8VRMijG--17" style="edgeStyle=orthogonalEdgeStyle;rounded=0;orthogonalLoop=1;jettySize=auto;html=1;exitX=0.5;exitY=1;exitDx=0;exitDy=0;" edge="1" parent="1" source="6VlEbWFDwJkO8VRMijG--18" target="6VlEbWFDwJkO8VRMijG--19">
          <mxGeometry relative="1" as="geometry" />
        </mxCell>
        <mxCell id="6VlEbWFDwJkO8VRMijG--18" value="Active" style="rhombus;whiteSpace=wrap;html=1;" vertex="1" parent="1">
          <mxGeometry x="2315" y="260" width="250" height="80" as="geometry" />
        </mxCell>
        <mxCell id="6VlEbWFDwJkO8VRMijG--19" value="알람 처리&lt;br&gt;(함수내에서 처리)" style="rounded=1;whiteSpace=wrap;html=1;" vertex="1" parent="1">
          <mxGeometry x="2325" y="390" width="230" height="60" as="geometry" />
        </mxCell>
        <mxCell id="6VlEbWFDwJkO8VRMijG--20" value="&lt;span style=&quot;font-weight: 400;&quot;&gt;VendorAlarm&lt;/span&gt;" style="swimlane;whiteSpace=wrap;html=1;" vertex="1" parent="1">
          <mxGeometry x="920" y="80" width="370" height="140" as="geometry" />
        </mxCell>
        <mxCell id="6VlEbWFDwJkO8VRMijG--21" value="dpSet&lt;br&gt;(라이브러리 함수에서 Active 처리 판단)" style="rounded=1;whiteSpace=wrap;html=1;" vertex="1" parent="6VlEbWFDwJkO8VRMijG--20">
          <mxGeometry x="70" y="50" width="230" height="60" as="geometry" />
        </mxCell>
      </root>
    </mxGraphModel>
  </diagram>
</mxfile>
